<?xml version="1.0" encoding="UTF-8" standalone="no"?>
<svg
   xmlns:dc="http://purl.org/dc/elements/1.1/"
   xmlns:cc="http://creativecommons.org/ns#"
   xmlns:rdf="http://www.w3.org/1999/02/22-rdf-syntax-ns#"
   xmlns:svg="http://www.w3.org/2000/svg"
   xmlns="http://www.w3.org/2000/svg"
   xmlns:sodipodi="http://sodipodi.sourceforge.net/DTD/sodipodi-0.dtd"
   xmlns:inkscape="http://www.inkscape.org/namespaces/inkscape"
   version="1.1"
   id="Your_Icon"
   x="0px"
   y="0px"
   width="100px"
   height="100px"
   viewBox="0 0 100 100"
   enable-background="new 0 0 100 100"
   xml:space="preserve"
   inkscape:version="0.48.4 r9939"
   sodipodi:docname="map.svg"><metadata
     id="metadata15"><rdf:RDF><cc:Work
         rdf:about=""><dc:format>image/svg+xml</dc:format><dc:type
           rdf:resource="http://purl.org/dc/dcmitype/StillImage" /></cc:Work></rdf:RDF></metadata><defs
     id="defs13" /><sodipodi:namedview
     pagecolor="#ffffff"
     bordercolor="#666666"
     borderopacity="1"
     objecttolerance="10"
     gridtolerance="10"
     guidetolerance="10"
     inkscape:pageopacity="0"
     inkscape:pageshadow="2"
     inkscape:window-width="863"
     inkscape:window-height="626"
     id="namedview11"
     showgrid="false"
     inkscape:zoom="2.36"
     inkscape:cx="-28.177966"
     inkscape:cy="50"
     inkscape:window-x="0"
     inkscape:window-y="27"
     inkscape:window-maximized="0"
     inkscape:current-layer="Your_Icon" /><path
     d="M49.68,19.77c0.003,0.15,0.012,0.3,0.012,0.451c0,11.033-17.276,31.601-19.247,33.91l-2.319,2.719l-2.32-2.719  c-1.181-1.386-7.872-9.345-13.037-17.873V97h10.081l41.378-77.23H49.68z"
     id="path3"
     style="fill:#d5d5d5;fill-opacity:1" /><polygon
     points="38.222,97 90,97 90,89.731 52.796,69.799 "
     id="polygon5"
     style="fill:#d5d5d5;fill-opacity:1" /><polygon
     points="79.6,19.77 59.195,57.855 90,74.359 90,19.77 "
     id="polygon7"
     style="fill:#d5d5d5;fill-opacity:1" /><path
     d="M28.126,52.152c0,0,18.517-21.704,18.517-31.931c0-10.227-8.29-18.517-18.517-18.517c-10.227,0-18.518,8.291-18.518,18.517  C9.608,30.448,28.126,52.152,28.126,52.152z M28.125,8.93c3.991,0,7.227,3.235,7.227,7.226c0,3.992-3.235,7.227-7.227,7.227  s-7.227-3.235-7.227-7.227C20.899,12.166,24.134,8.93,28.125,8.93z"
     id="path9"
     style="fill:#d5d5d5;fill-opacity:1" /></svg>