<?xml version="1.0" encoding="UTF-8" standalone="no"?>
<svg id="Layer_1" xmlns:rdf="http://www.w3.org/1999/02/22-rdf-syntax-ns#" xmlns="http://www.w3.org/2000/svg" enable-background="new 0 0 96 99.818" xml:space="preserve" height="100px" viewBox="0 0 96 99.818" width="100px" version="1.1" y="0px" x="0px" xmlns:cc="http://creativecommons.org/ns#" xmlns:dc="http://purl.org/dc/elements/1.1/"><metadata id="metadata13"><rdf:RDF><cc:Work rdf:about=""><dc:format>image/svg+xml</dc:format><dc:type rdf:resource="http://purl.org/dc/dcmitype/StillImage"/><dc:title/></cc:Work></rdf:RDF></metadata><g id="g3" fill="#d3d7cf"><path id="path5" d="M41.884,34.988c-0.879-0.411-1.946-0.548-1.946,0.813v20.626c0,1.257,0.962,1.431,1.955,0.848l18.13-10.062c1.295-0.627,0.98-1.708-0.088-2.216l-18.051-10.009z"/><path id="path7" d="M66.721,79.158s-6.084-3.318-12.893-4.318v-4.23h24.977c2.979,0,4.436-1.065,4.436-4.047v-42.322c0-2.978-1.514-3.581-4.494-3.581h-61.999c-2.975,0-3.988,1.274-3.988,4.248v41.512c0,2.981,0.951,4.189,3.923,4.189h25.586v4.23c-6.529,0.907-11.931,3.892-11.931,4.299l36.383,0.02zm11.83-15.725c0,2.553-0.596,2.669-2.369,2.669h-56.509c-1.685,0-2.227-0.366-2.227-2.922v-35.267c0-2.546,0.185-2.746,2.286-2.746h56.022c2.578,0,2.797,0.263,2.797,2.114v36.152z"/></g></svg>
